<svg width="11" height="10" viewBox="0 0 11 10" fill="none" xmlns="http://www.w3.org/2000/svg">
<path d="M1.75068 4.72194C1.3858 4.30735 0.753916 4.26705 0.339329 4.63193C-0.0752577 4.99681 -0.115554 5.62869 0.249324 6.04328L1.75068 4.72194ZM3.57143 8.30435L2.82075 8.96502L3.57143 9.81796L4.3221 8.96502L3.57143 8.30435ZM10.7507 1.66067C11.1156 1.24608 11.0753 0.614203 10.6607 0.249324C10.2461 -0.115554 9.6142 -0.0752577 9.24932 0.339329L10.7507 1.66067ZM0.249324 6.04328L2.82075 8.96502L4.3221 7.64368L1.75068 4.72194L0.249324 6.04328ZM4.3221 8.96502L10.7507 1.66067L9.24932 0.339329L2.82075 7.64368L4.3221 8.96502Z" fill="#479696"/>
</svg>
